<svg width="2196" height="1233" xmlns="http://www.w3.org/2000/svg" xmlns:xlink="http://www.w3.org/1999/xlink" xml:space="preserve" overflow="hidden"><defs><clipPath id="clip0"><rect x="1892" y="23448" width="2196" height="1233"/></clipPath><clipPath id="clip1"><rect x="1893" y="23450" width="2191" height="1226"/></clipPath><clipPath id="clip2"><rect x="2024" y="23620" width="2013" height="953"/></clipPath><clipPath id="clip3"><rect x="1893" y="23450" width="2191" height="1226"/></clipPath><clipPath id="clip4"><rect x="1893" y="23450" width="2191" height="1226"/></clipPath><clipPath id="clip5"><rect x="1893" y="23450" width="2191" height="1226"/></clipPath><clipPath id="clip6"><rect x="1893" y="23450" width="2191" height="1226"/></clipPath><clipPath id="clip7"><rect x="1893" y="23450" width="2191" height="1226"/></clipPath><clipPath id="clip8"><rect x="1893" y="23450" width="2191" height="1226"/></clipPath><clipPath id="clip9"><rect x="1893" y="23450" width="2191" height="1226"/></clipPath><clipPath id="clip10"><rect x="1893" y="23450" width="2191" height="1226"/></clipPath><clipPath id="clip11"><rect x="1893" y="23450" width="2191" height="1226"/></clipPath><clipPath id="clip12"><rect x="1893" y="23450" width="2191" height="1226"/></clipPath><clipPath id="clip13"><rect x="1893" y="23450" width="2191" height="1226"/></clipPath><clipPath id="clip14"><rect x="1893" y="23450" width="2191" height="1226"/></clipPath><clipPath id="clip15"><rect x="1893" y="23450" width="2191" height="1226"/></clipPath><clipPath id="clip16"><rect x="1893" y="23450" width="2191" height="1226"/></clipPath></defs><g clip-path="url(#clip0)" transform="translate(-1892 -23448)"><rect x="1894" y="23450" width="2191" height="1227" fill="#FFFFFF" fill-opacity="1"/><g clip-path="url(#clip1)"><path d="M2024.5 24451.3 4034.5 24451.3M2024.5 24333.3 4034.5 24333.3M2024.5 24214.3 4034.5 24214.3M2024.5 24095.3 4034.5 24095.3M2024.5 23976.3 4034.5 23976.3M2024.5 23857.3 4034.5 23857.3M2024.5 23739.3 4034.5 23739.3M2024.5 23620.5 4034.5 23620.5" stroke="#D9D9D9" stroke-width="3.4375" stroke-linecap="butt" stroke-linejoin="round" stroke-miterlimit="10" stroke-opacity="1" fill="none" fill-rule="nonzero"/></g><g clip-path="url(#clip2)"><path d="M2254.07 23793.8 2464.08 23793.8 2464.08 24570 2254.07 24570ZM2924.1 23736.8 3134.1 23736.8 3134.1 24570 2924.1 24570ZM3594.12 24021.8 3804.12 24021.8 3804.12 24570 3594.12 24570Z" fill="#4472C4" fill-rule="nonzero" fill-opacity="1"/></g><g clip-path="url(#clip3)"><path d="M2024.5 24570.5 4034.5 24570.5" stroke="#D9D9D9" stroke-width="3.4375" stroke-linecap="butt" stroke-linejoin="round" stroke-miterlimit="10" stroke-opacity="1" fill="none" fill-rule="evenodd"/></g><g clip-path="url(#clip4)"><text fill="#595959" fill-opacity="1" font-family="Calibri,Calibri_MSFontService,sans-serif" font-style="normal" font-variant="normal" font-weight="400" font-stretch="normal" font-size="41" text-anchor="start" direction="ltr" writing-mode="lr-tb" unicode-bidi="normal" text-decoration="none" transform="matrix(1 0 0 1 1965.42 24581)">0</text></g><g clip-path="url(#clip5)"><text fill="#595959" fill-opacity="1" font-family="Calibri,Calibri_MSFontService,sans-serif" font-style="normal" font-variant="normal" font-weight="400" font-stretch="normal" font-size="41" text-anchor="start" direction="ltr" writing-mode="lr-tb" unicode-bidi="normal" text-decoration="none" transform="matrix(1 0 0 1 1944.52 24462)">50</text></g><g clip-path="url(#clip6)"><text fill="#595959" fill-opacity="1" font-family="Calibri,Calibri_MSFontService,sans-serif" font-style="normal" font-variant="normal" font-weight="400" font-stretch="normal" font-size="41" text-anchor="start" direction="ltr" writing-mode="lr-tb" unicode-bidi="normal" text-decoration="none" transform="matrix(1 0 0 1 1923.62 24343)">100</text></g><g clip-path="url(#clip7)"><text fill="#595959" fill-opacity="1" font-family="Calibri,Calibri_MSFontService,sans-serif" font-style="normal" font-variant="normal" font-weight="400" font-stretch="normal" font-size="41" text-anchor="start" direction="ltr" writing-mode="lr-tb" unicode-bidi="normal" text-decoration="none" transform="matrix(1 0 0 1 1923.62 24225)">150</text></g><g clip-path="url(#clip8)"><text fill="#595959" fill-opacity="1" font-family="Calibri,Calibri_MSFontService,sans-serif" font-style="normal" font-variant="normal" font-weight="400" font-stretch="normal" font-size="41" text-anchor="start" direction="ltr" writing-mode="lr-tb" unicode-bidi="normal" text-decoration="none" transform="matrix(1 0 0 1 1923.62 24106)">200</text></g><g clip-path="url(#clip9)"><text fill="#595959" fill-opacity="1" font-family="Calibri,Calibri_MSFontService,sans-serif" font-style="normal" font-variant="normal" font-weight="400" font-stretch="normal" font-size="41" text-anchor="start" direction="ltr" writing-mode="lr-tb" unicode-bidi="normal" text-decoration="none" transform="matrix(1 0 0 1 1923.62 23987)">250</text></g><g clip-path="url(#clip10)"><text fill="#595959" fill-opacity="1" font-family="Calibri,Calibri_MSFontService,sans-serif" font-style="normal" font-variant="normal" font-weight="400" font-stretch="normal" font-size="41" text-anchor="start" direction="ltr" writing-mode="lr-tb" unicode-bidi="normal" text-decoration="none" transform="matrix(1 0 0 1 1923.62 23868)">300</text></g><g clip-path="url(#clip11)"><text fill="#595959" fill-opacity="1" font-family="Calibri,Calibri_MSFontService,sans-serif" font-style="normal" font-variant="normal" font-weight="400" font-stretch="normal" font-size="41" text-anchor="start" direction="ltr" writing-mode="lr-tb" unicode-bidi="normal" text-decoration="none" transform="matrix(1 0 0 1 1923.62 23749)">350</text></g><g clip-path="url(#clip12)"><text fill="#595959" fill-opacity="1" font-family="Calibri,Calibri_MSFontService,sans-serif" font-style="normal" font-variant="normal" font-weight="400" font-stretch="normal" font-size="41" text-anchor="start" direction="ltr" writing-mode="lr-tb" unicode-bidi="normal" text-decoration="none" transform="matrix(1 0 0 1 1923.62 23631)">400</text></g><g clip-path="url(#clip13)"><text fill="#595959" fill-opacity="1" font-family="Calibri,Calibri_MSFontService,sans-serif" font-style="normal" font-variant="normal" font-weight="400" font-stretch="normal" font-size="41" text-anchor="start" direction="ltr" writing-mode="lr-tb" unicode-bidi="normal" text-decoration="none" transform="matrix(1 0 0 1 2310.9 24636)">Three</text></g><g clip-path="url(#clip14)"><text fill="#595959" fill-opacity="1" font-family="Calibri,Calibri_MSFontService,sans-serif" font-style="normal" font-variant="normal" font-weight="400" font-stretch="normal" font-size="41" text-anchor="start" direction="ltr" writing-mode="lr-tb" unicode-bidi="normal" text-decoration="none" transform="matrix(1 0 0 1 2993.74 24636)">Two</text></g><g clip-path="url(#clip15)"><text fill="#595959" fill-opacity="1" font-family="Calibri,Calibri_MSFontService,sans-serif" font-style="normal" font-variant="normal" font-weight="400" font-stretch="normal" font-size="41" text-anchor="start" direction="ltr" writing-mode="lr-tb" unicode-bidi="normal" text-decoration="none" transform="matrix(1 0 0 1 3649.55 24636)">Single</text></g><g clip-path="url(#clip16)"><text fill="#595959" fill-opacity="1" font-family="Calibri,Calibri_MSFontService,sans-serif" font-style="normal" font-variant="normal" font-weight="400" font-stretch="normal" font-size="64" text-anchor="start" direction="ltr" writing-mode="lr-tb" unicode-bidi="normal" text-decoration="none" transform="matrix(1 0 0 1 2692.62 23546)">Cart group distribution</text></g><rect x="1894.5" y="23450.5" width="2191" height="1227" stroke="#D9D9D9" stroke-width="3.4375" stroke-linecap="butt" stroke-linejoin="round" stroke-miterlimit="10" stroke-opacity="1" fill="none"/></g></svg>