<svg width="1653" height="993" xmlns="http://www.w3.org/2000/svg" xmlns:xlink="http://www.w3.org/1999/xlink" xml:space="preserve" overflow="hidden"><defs><clipPath id="clip0"><rect x="4418" y="2663" width="1653" height="993"/></clipPath><clipPath id="clip1"><rect x="4418" y="2664" width="1650" height="990"/></clipPath><clipPath id="clip2"><rect x="4625" y="2834" width="1396" height="619"/></clipPath><clipPath id="clip3"><rect x="4418" y="2664" width="1650" height="990"/></clipPath><clipPath id="clip4"><rect x="4418" y="2664" width="1650" height="990"/></clipPath><clipPath id="clip5"><rect x="4418" y="2664" width="1650" height="990"/></clipPath><clipPath id="clip6"><rect x="4418" y="2664" width="1650" height="990"/></clipPath><clipPath id="clip7"><rect x="4418" y="2664" width="1650" height="990"/></clipPath><clipPath id="clip8"><rect x="4418" y="2664" width="1650" height="990"/></clipPath><clipPath id="clip9"><rect x="4418" y="2664" width="1650" height="990"/></clipPath><clipPath id="clip10"><rect x="4418" y="2664" width="1650" height="990"/></clipPath><clipPath id="clip11"><rect x="4418" y="2664" width="1650" height="990"/></clipPath><clipPath id="clip12"><rect x="4418" y="2664" width="1650" height="990"/></clipPath><clipPath id="clip13"><rect x="4418" y="2664" width="1650" height="990"/></clipPath><clipPath id="clip14"><rect x="4418" y="2664" width="1650" height="990"/></clipPath><clipPath id="clip15"><rect x="4418" y="2664" width="1650" height="990"/></clipPath><clipPath id="clip16"><rect x="4418" y="2664" width="1650" height="990"/></clipPath><clipPath id="clip17"><rect x="4418" y="2664" width="1650" height="990"/></clipPath><clipPath id="clip18"><rect x="4418" y="2664" width="1650" height="990"/></clipPath><clipPath id="clip19"><rect x="4418" y="2664" width="1650" height="990"/></clipPath><clipPath id="clip20"><rect x="4418" y="2664" width="1650" height="990"/></clipPath><clipPath id="clip21"><rect x="4418" y="2664" width="1650" height="990"/></clipPath><clipPath id="clip22"><rect x="4418" y="2664" width="1650" height="990"/></clipPath></defs><g clip-path="url(#clip0)" transform="translate(-4418 -2663)"><rect x="4419" y="2664" width="1650" height="990" fill="#FFFFFF"/><g clip-path="url(#clip1)"><path d="M4625.5 3381.61 6018.5 3381.61M4625.5 3313.61 6018.5 3313.61M4625.5 3244.61 6018.5 3244.61M4625.5 3176.6 6018.5 3176.6M4625.5 3107.6 6018.5 3107.6M4625.5 3039.6 6018.5 3039.6M4625.5 2970.6 6018.5 2970.6M4625.5 2902.6 6018.5 2902.6M4625.5 2834.5 6018.5 2834.5" stroke="#D9D9D9" stroke-width="3.4375" stroke-linejoin="round" stroke-miterlimit="10" fill="none"/></g><g clip-path="url(#clip2)"><path d="M4785.16 3095.1 4931.16 3095.1 4931.16 3451 4785.16 3451ZM5249.17 2913.1 5395.18 2913.1 5395.18 3451 5249.17 3451ZM5713.19 2974.1 5859.19 2974.1 5859.19 3451 5713.19 3451Z" fill="#4472C4"/></g><g clip-path="url(#clip3)"><path d="M4625.5 3450.5 6018.5 3450.5" stroke="#D9D9D9" stroke-width="3.4375" stroke-linejoin="round" stroke-miterlimit="10" fill="none" fill-rule="evenodd"/></g><g clip-path="url(#clip4)"><text fill="#404040" font-family="Calibri,Calibri_MSFontService,sans-serif" font-weight="400" font-size="41" transform="matrix(1 0 0 1 4811.1 3063)">25,97</text></g><g clip-path="url(#clip5)"><text fill="#404040" font-family="Calibri,Calibri_MSFontService,sans-serif" font-weight="400" font-size="41" transform="matrix(1 0 0 1 5275.28 2881)">39,24</text></g><g clip-path="url(#clip6)"><text fill="#404040" font-family="Calibri,Calibri_MSFontService,sans-serif" font-weight="400" font-size="41" transform="matrix(1 0 0 1 5739.46 2942)">34,79</text></g><g clip-path="url(#clip7)"><text fill="#595959" font-family="Calibri,Calibri_MSFontService,sans-serif" font-weight="400" font-size="41" transform="matrix(1 0 0 1 4566.79 3462)">0</text></g><g clip-path="url(#clip8)"><text fill="#595959" font-family="Calibri,Calibri_MSFontService,sans-serif" font-weight="400" font-size="41" transform="matrix(1 0 0 1 4566.79 3394)">5</text></g><g clip-path="url(#clip9)"><text fill="#595959" font-family="Calibri,Calibri_MSFontService,sans-serif" font-weight="400" font-size="41" transform="matrix(1 0 0 1 4545.89 3325)">10</text></g><g clip-path="url(#clip10)"><text fill="#595959" font-family="Calibri,Calibri_MSFontService,sans-serif" font-weight="400" font-size="41" transform="matrix(1 0 0 1 4545.89 3257)">15</text></g><g clip-path="url(#clip11)"><text fill="#595959" font-family="Calibri,Calibri_MSFontService,sans-serif" font-weight="400" font-size="41" transform="matrix(1 0 0 1 4545.89 3188)">20</text></g><g clip-path="url(#clip12)"><text fill="#595959" font-family="Calibri,Calibri_MSFontService,sans-serif" font-weight="400" font-size="41" transform="matrix(1 0 0 1 4545.89 3120)">25</text></g><g clip-path="url(#clip13)"><text fill="#595959" font-family="Calibri,Calibri_MSFontService,sans-serif" font-weight="400" font-size="41" transform="matrix(1 0 0 1 4545.89 3051)">30</text></g><g clip-path="url(#clip14)"><text fill="#595959" font-family="Calibri,Calibri_MSFontService,sans-serif" font-weight="400" font-size="41" transform="matrix(1 0 0 1 4545.89 2983)">35</text></g><g clip-path="url(#clip15)"><text fill="#595959" font-family="Calibri,Calibri_MSFontService,sans-serif" font-weight="400" font-size="41" transform="matrix(1 0 0 1 4545.89 2914)">40</text></g><g clip-path="url(#clip16)"><text fill="#595959" font-family="Calibri,Calibri_MSFontService,sans-serif" font-weight="400" font-size="41" transform="matrix(1 0 0 1 4545.89 2846)">45</text></g><g clip-path="url(#clip17)"><text fill="#595959" font-family="Calibri,Calibri_MSFontService,sans-serif" font-weight="400" font-size="41" transform="matrix(1 0 0 1 4809.7 3516)">single</text></g><g clip-path="url(#clip18)"><text fill="#595959" font-family="Calibri,Calibri_MSFontService,sans-serif" font-weight="400" font-size="41" transform="matrix(1 0 0 1 5289.69 3516)">two</text></g><g clip-path="url(#clip19)"><text fill="#595959" font-family="Calibri,Calibri_MSFontService,sans-serif" font-weight="400" font-size="41" transform="matrix(1 0 0 1 5740.92 3516)">three</text></g><g clip-path="url(#clip20)"><text fill="#595959" font-family="Calibri,Calibri_MSFontService,sans-serif" font-weight="400" font-size="46" transform="matrix(6.12323e-17 -1 1 6.12323e-17 4520.2 3248)">Percentage</text></g><g clip-path="url(#clip21)"><text fill="#595959" font-family="Calibri,Calibri_MSFontService,sans-serif" font-weight="400" font-size="46" transform="matrix(1 0 0 1 5263.6 3585)">Group</text></g><g clip-path="url(#clip22)"><text fill="#595959" font-family="Calibri,Calibri_MSFontService,sans-serif" font-weight="400" font-size="64" transform="matrix(1 0 0 1 4947.27 2759)">Cart group distribution</text></g><rect x="4419.5" y="2664.5" width="1650" height="990" stroke="#D9D9D9" stroke-width="3.4375" stroke-linejoin="round" stroke-miterlimit="10" fill="none"/></g></svg>