<svg width="1651" height="993" xmlns="http://www.w3.org/2000/svg" xmlns:xlink="http://www.w3.org/1999/xlink" xml:space="preserve" overflow="hidden"><defs><clipPath id="clip0"><rect x="5433" y="258" width="1651" height="993"/></clipPath><clipPath id="clip1"><rect x="5433" y="259" width="1648" height="990"/></clipPath><clipPath id="clip2"><rect x="5433" y="259" width="1648" height="990"/></clipPath><clipPath id="clip3"><rect x="5433" y="259" width="1648" height="990"/></clipPath><clipPath id="clip4"><rect x="5661" y="309" width="1373" height="560"/></clipPath><clipPath id="clip5"><rect x="5661" y="309" width="1373" height="560"/></clipPath><clipPath id="clip6"><rect x="5661" y="309" width="1373" height="560"/></clipPath><clipPath id="clip7"><rect x="5433" y="259" width="1648" height="990"/></clipPath><clipPath id="clip8"><rect x="5433" y="259" width="1648" height="990"/></clipPath><clipPath id="clip9"><rect x="5433" y="259" width="1648" height="990"/></clipPath><clipPath id="clip10"><rect x="5433" y="259" width="1648" height="990"/></clipPath><clipPath id="clip11"><rect x="5433" y="259" width="1648" height="990"/></clipPath><clipPath id="clip12"><rect x="5433" y="259" width="1648" height="990"/></clipPath><clipPath id="clip13"><rect x="5433" y="259" width="1648" height="990"/></clipPath><clipPath id="clip14"><rect x="5433" y="259" width="1648" height="990"/></clipPath><clipPath id="clip15"><rect x="5433" y="259" width="1648" height="990"/></clipPath><clipPath id="clip16"><rect x="5433" y="259" width="1648" height="990"/></clipPath><clipPath id="clip17"><rect x="5433" y="259" width="1648" height="990"/></clipPath><clipPath id="clip18"><rect x="5433" y="259" width="1648" height="990"/></clipPath><clipPath id="clip19"><rect x="5433" y="259" width="1648" height="990"/></clipPath><clipPath id="clip20"><rect x="5433" y="259" width="1648" height="990"/></clipPath><clipPath id="clip21"><rect x="5433" y="259" width="1648" height="990"/></clipPath><clipPath id="clip22"><rect x="5433" y="259" width="1648" height="990"/></clipPath><clipPath id="clip23"><rect x="5433" y="259" width="1648" height="990"/></clipPath><clipPath id="clip24"><rect x="5433" y="259" width="1648" height="990"/></clipPath><clipPath id="clip25"><rect x="5433" y="259" width="1648" height="990"/></clipPath><clipPath id="clip26"><rect x="5433" y="259" width="1648" height="990"/></clipPath><clipPath id="clip27"><rect x="5433" y="259" width="1648" height="990"/></clipPath><clipPath id="clip28"><rect x="5433" y="259" width="1648" height="990"/></clipPath><clipPath id="clip29"><rect x="5433" y="259" width="1648" height="990"/></clipPath><clipPath id="clip30"><rect x="5433" y="259" width="1648" height="990"/></clipPath><clipPath id="clip31"><rect x="5433" y="259" width="1648" height="990"/></clipPath><clipPath id="clip32"><rect x="5433" y="259" width="1648" height="990"/></clipPath><clipPath id="clip33"><rect x="5433" y="259" width="1648" height="990"/></clipPath><clipPath id="clip34"><rect x="5433" y="259" width="1648" height="990"/></clipPath><clipPath id="clip35"><rect x="5433" y="259" width="1648" height="990"/></clipPath><clipPath id="clip36"><rect x="5433" y="259" width="1648" height="990"/></clipPath><clipPath id="clip37"><rect x="5433" y="259" width="1648" height="990"/></clipPath><clipPath id="clip38"><rect x="5433" y="259" width="1648" height="990"/></clipPath><clipPath id="clip39"><rect x="5433" y="259" width="1648" height="990"/></clipPath><clipPath id="clip40"><rect x="5433" y="259" width="1648" height="990"/></clipPath><clipPath id="clip41"><rect x="5433" y="259" width="1648" height="990"/></clipPath><clipPath id="clip42"><rect x="5433" y="259" width="1648" height="990"/></clipPath><clipPath id="clip43"><rect x="5433" y="259" width="1648" height="990"/></clipPath><clipPath id="clip44"><rect x="5433" y="259" width="1648" height="990"/></clipPath><clipPath id="clip45"><rect x="5433" y="259" width="1648" height="990"/></clipPath><clipPath id="clip46"><rect x="5433" y="259" width="1648" height="990"/></clipPath><clipPath id="clip47"><rect x="5433" y="259" width="1648" height="990"/></clipPath><clipPath id="clip48"><rect x="5433" y="259" width="1648" height="990"/></clipPath></defs><g clip-path="url(#clip0)" transform="translate(-5433 -258)"><rect x="5434" y="259" width="1648" height="990" fill="#FFFFFF"/><g clip-path="url(#clip1)"><path d="M5661.5 773.526 7031.5 773.526M5661.5 680.523 7031.5 680.523M5661.5 587.519 7031.5 587.519M5661.5 495.516 7031.5 495.516M5661.5 402.513 7031.5 402.513M5661.5 309.5 7031.5 309.5" stroke="#D9D9D9" stroke-width="3.4375" stroke-linejoin="round" stroke-miterlimit="10" fill="none"/></g><g clip-path="url(#clip2)"><path d="M5661.5 865.5 7031.5 865.5" stroke="#D9D9D9" stroke-width="3.4375" stroke-linejoin="round" stroke-miterlimit="10" fill="none" fill-rule="evenodd"/></g><g clip-path="url(#clip3)"><path d="M5661.5 865.5 5661.5 879.5M5664.69 865.5 5664.69 879.5M5667.69 865.5 5667.69 879.5M5670.69 865.5 5670.69 879.5M5673.69 865.5 5673.69 879.5M5676.69 865.5 5676.69 879.5M5679.69 865.5 5679.69 879.5M5682.69 865.5 5682.69 879.5M5685.69 865.5 5685.69 879.5M5688.69 865.5 5688.69 879.5M5691.69 865.5 5691.69 879.5M5694.69 865.5 5694.69 879.5M5697.69 865.5 5697.69 879.5M5700.69 865.5 5700.69 879.5M5703.69 865.5 5703.69 879.5M5706.69 865.5 5706.69 879.5M5709.69 865.5 5709.69 879.5M5712.69 865.5 5712.69 879.5M5715.69 865.5 5715.69 879.5M5718.69 865.5 5718.69 879.5M5721.69 865.5 5721.69 879.5M5724.69 865.5 5724.69 879.5M5727.69 865.5 5727.69 879.5M5730.69 865.5 5730.69 879.5M5733.69 865.5 5733.69 879.5M5736.69 865.5 5736.69 879.5M5739.69 865.5 5739.69 879.5M5742.69 865.5 5742.69 879.5M5745.69 865.5 5745.69 879.5M5748.69 865.5 5748.69 879.5M5751.69 865.5 5751.69 879.5M5754.69 865.5 5754.69 879.5M5757.69 865.5 5757.69 879.5M5760.69 865.5 5760.69 879.5M5763.69 865.5 5763.69 879.5M5766.69 865.5 5766.69 879.5M5769.69 865.5 5769.69 879.5M5772.69 865.5 5772.69 879.5M5775.69 865.5 5775.69 879.5M5778.69 865.5 5778.69 879.5M5781.69 865.5 5781.69 879.5M5784.69 865.5 5784.69 879.5M5787.69 865.5 5787.69 879.5M5790.69 865.5 5790.69 879.5M5793.69 865.5 5793.69 879.5M5796.69 865.5 5796.69 879.5M5799.69 865.5 5799.69 879.5M5802.69 865.5 5802.69 879.5M5805.69 865.5 5805.69 879.5M5808.69 865.5 5808.69 879.5M5811.69 865.5 5811.69 879.5M5814.69 865.5 5814.69 879.5M5817.69 865.5 5817.69 879.5M5820.69 865.5 5820.69 879.5M5823.69 865.5 5823.69 879.5M5826.69 865.5 5826.69 879.5M5829.69 865.5 5829.69 879.5M5832.69 865.5 5832.69 879.5M5835.69 865.5 5835.69 879.5M5838.69 865.5 5838.69 879.5M5841.69 865.5 5841.69 879.5M5844.69 865.5 5844.69 879.5M5847.69 865.5 5847.69 879.5M5850.69 865.5 5850.69 879.5M5853.69 865.5 5853.69 879.5M5856.69 865.5 5856.69 879.5M5859.69 865.5 5859.69 879.5M5862.69 865.5 5862.69 879.5M5865.69 865.5 5865.69 879.5M5868.69 865.5 5868.69 879.5M5871.69 865.5 5871.69 879.5M5874.69 865.5 5874.69 879.5M5877.69 865.5 5877.69 879.5M5880.69 865.5 5880.69 879.5M5883.69 865.5 5883.69 879.5M5886.69 865.5 5886.69 879.5M5889.69 865.5 5889.69 879.5M5892.69 865.5 5892.69 879.5M5895.69 865.5 5895.69 879.5M5898.69 865.5 5898.69 879.5M5901.69 865.5 5901.69 879.5M5904.69 865.5 5904.69 879.5M5907.69 865.5 5907.69 879.5M5910.69 865.5 5910.69 879.5M5913.69 865.5 5913.69 879.5M5916.69 865.5 5916.69 879.5M5919.69 865.5 5919.69 879.5M5922.69 865.5 5922.69 879.5M5925.69 865.5 5925.69 879.5M5928.69 865.5 5928.69 879.5M5931.69 865.5 5931.69 879.5M5934.69 865.5 5934.69 879.5M5937.69 865.5 5937.69 879.5M5940.69 865.5 5940.69 879.5M5943.7 865.5 5943.7 879.5M5946.7 865.5 5946.7 879.5M5949.7 865.5 5949.7 879.5M5952.7 865.5 5952.7 879.5M5955.7 865.5 5955.7 879.5M5958.7 865.5 5958.7 879.5M5961.7 865.5 5961.7 879.5M5964.7 865.5 5964.7 879.5M5967.7 865.5 5967.7 879.5M5970.7 865.5 5970.7 879.5M5973.7 865.5 5973.7 879.5M5976.7 865.5 5976.7 879.5M5979.7 865.5 5979.7 879.5M5982.7 865.5 5982.7 879.5M5985.7 865.5 5985.7 879.5M5988.7 865.5 5988.7 879.5M5991.7 865.5 5991.7 879.5M5994.7 865.5 5994.7 879.5M5997.7 865.5 5997.7 879.5M6000.7 865.5 6000.7 879.5M6003.7 865.5 6003.7 879.5M6006.7 865.5 6006.7 879.5M6009.7 865.5 6009.7 879.5M6012.7 865.5 6012.7 879.5M6015.7 865.5 6015.7 879.5M6018.7 865.5 6018.7 879.5M6021.7 865.5 6021.7 879.5M6024.7 865.5 6024.7 879.5M6027.7 865.5 6027.7 879.5M6030.7 865.5 6030.7 879.5M6033.7 865.5 6033.7 879.5M6036.7 865.5 6036.7 879.5M6039.7 865.5 6039.7 879.5M6042.7 865.5 6042.7 879.5M6045.7 865.5 6045.7 879.5M6048.7 865.5 6048.7 879.5M6051.7 865.5 6051.7 879.5M6054.7 865.5 6054.7 879.5M6057.7 865.5 6057.7 879.5M6060.7 865.5 6060.7 879.5M6063.7 865.5 6063.7 879.5M6066.7 865.5 6066.7 879.5M6069.7 865.5 6069.7 879.5M6072.7 865.5 6072.7 879.5M6075.7 865.5 6075.7 879.5M6078.7 865.5 6078.7 879.5M6081.7 865.5 6081.7 879.5M6084.7 865.5 6084.7 879.5M6087.7 865.5 6087.7 879.5M6090.7 865.5 6090.7 879.5M6093.7 865.5 6093.7 879.5M6096.7 865.5 6096.7 879.5M6099.7 865.5 6099.7 879.5M6102.7 865.5 6102.7 879.5M6105.7 865.5 6105.7 879.5M6108.7 865.5 6108.7 879.5M6111.7 865.5 6111.7 879.5M6113.7 865.5 6113.7 879.5M6116.7 865.5 6116.7 879.5M6119.7 865.5 6119.7 879.5M6122.7 865.5 6122.7 879.5M6125.7 865.5 6125.7 879.5M6128.7 865.5 6128.7 879.5M6131.7 865.5 6131.7 879.5M6134.7 865.5 6134.7 879.5M6137.7 865.5 6137.7 879.5M6140.7 865.5 6140.7 879.5M6143.7 865.5 6143.7 879.5M6146.7 865.5 6146.7 879.5M6149.7 865.5 6149.7 879.5M6152.7 865.5 6152.7 879.5M6155.7 865.5 6155.7 879.5M6158.7 865.5 6158.7 879.5M6161.7 865.5 6161.7 879.5M6164.7 865.5 6164.7 879.5M6167.7 865.5 6167.7 879.5M6170.7 865.5 6170.7 879.5M6173.7 865.5 6173.7 879.5M6176.7 865.5 6176.7 879.5M6179.7 865.5 6179.7 879.5M6182.7 865.5 6182.7 879.5M6185.7 865.5 6185.7 879.5M6188.7 865.5 6188.7 879.5M6191.7 865.5 6191.7 879.5M6194.7 865.5 6194.7 879.5M6197.7 865.5 6197.7 879.5M6200.7 865.5 6200.7 879.5M6203.7 865.5 6203.7 879.5M6206.7 865.5 6206.7 879.5M6209.7 865.5 6209.7 879.5M6212.7 865.5 6212.7 879.5M6215.7 865.5 6215.7 879.5M6218.7 865.5 6218.7 879.5M6221.7 865.5 6221.7 879.5M6224.7 865.5 6224.7 879.5M6227.7 865.5 6227.7 879.5M6230.7 865.5 6230.7 879.5M6233.7 865.5 6233.7 879.5M6236.7 865.5 6236.7 879.5M6239.71 865.5 6239.71 879.5M6242.71 865.5 6242.71 879.5M6245.71 865.5 6245.71 879.5M6248.71 865.5 6248.71 879.5M6251.71 865.5 6251.71 879.5M6254.71 865.5 6254.71 879.5M6257.71 865.5 6257.71 879.5M6260.71 865.5 6260.71 879.5M6263.71 865.5 6263.71 879.5M6266.71 865.5 6266.71 879.5M6269.71 865.5 6269.71 879.5M6272.71 865.5 6272.71 879.5M6275.71 865.5 6275.71 879.5M6278.71 865.5 6278.71 879.5M6281.71 865.5 6281.71 879.5M6284.71 865.5 6284.71 879.5M6287.71 865.5 6287.71 879.5M6290.71 865.5 6290.71 879.5M6293.71 865.5 6293.71 879.5M6296.71 865.5 6296.71 879.5M6299.71 865.5 6299.71 879.5M6302.71 865.5 6302.71 879.5M6305.71 865.5 6305.71 879.5M6308.71 865.5 6308.71 879.5M6311.71 865.5 6311.71 879.5M6314.71 865.5 6314.71 879.5M6317.71 865.5 6317.71 879.5M6320.71 865.5 6320.71 879.5M6323.71 865.5 6323.71 879.5M6326.71 865.5 6326.71 879.5M6329.71 865.5 6329.71 879.5M6332.71 865.5 6332.71 879.5M6335.71 865.5 6335.71 879.5M6338.71 865.5 6338.71 879.5M6341.71 865.5 6341.71 879.5M6344.71 865.5 6344.71 879.5M6347.71 865.5 6347.71 879.5M6350.71 865.5 6350.71 879.5M6353.71 865.5 6353.71 879.5M6356.71 865.5 6356.71 879.5M6359.71 865.5 6359.71 879.5M6362.71 865.5 6362.71 879.5M6365.71 865.5 6365.71 879.5M6368.71 865.5 6368.71 879.5M6371.71 865.5 6371.71 879.5M6374.71 865.5 6374.71 879.5M6377.71 865.5 6377.71 879.5M6380.71 865.5 6380.71 879.5M6383.71 865.5 6383.71 879.5M6386.71 865.5 6386.71 879.5M6389.71 865.5 6389.71 879.5M6392.71 865.5 6392.71 879.5M6395.71 865.5 6395.71 879.5M6398.71 865.5 6398.71 879.5M6401.71 865.5 6401.71 879.5M6404.71 865.5 6404.71 879.5M6407.71 865.5 6407.71 879.5M6410.71 865.5 6410.71 879.5M6413.71 865.5 6413.71 879.5M6416.71 865.5 6416.71 879.5M6419.71 865.5 6419.71 879.5M6422.71 865.5 6422.71 879.5M6425.71 865.5 6425.71 879.5M6428.71 865.5 6428.71 879.5M6431.71 865.5 6431.71 879.5M6434.71 865.5 6434.71 879.5M6437.71 865.5 6437.71 879.5M6440.71 865.5 6440.71 879.5M6443.71 865.5 6443.71 879.5M6446.71 865.5 6446.71 879.5M6449.71 865.5 6449.71 879.5M6452.71 865.5 6452.71 879.5M6455.71 865.5 6455.71 879.5M6458.71 865.5 6458.71 879.5M6461.71 865.5 6461.71 879.5M6464.71 865.5 6464.71 879.5M6467.71 865.5 6467.71 879.5M6470.71 865.5 6470.71 879.5M6473.71 865.5 6473.71 879.5M6476.71 865.5 6476.71 879.5M6479.71 865.5 6479.71 879.5M6482.71 865.5 6482.71 879.5M6485.71 865.5 6485.71 879.5M6488.71 865.5 6488.71 879.5M6491.71 865.5 6491.71 879.5M6494.71 865.5 6494.71 879.5M6497.71 865.5 6497.71 879.5M6500.71 865.5 6500.71 879.5M6503.71 865.5 6503.71 879.5M6506.71 865.5 6506.71 879.5M6509.71 865.5 6509.71 879.5M6512.71 865.5 6512.71 879.5M6515.71 865.5 6515.71 879.5M6518.71 865.5 6518.71 879.5M6521.71 865.5 6521.71 879.5M6524.71 865.5 6524.71 879.5M6527.71 865.5 6527.71 879.5M6530.71 865.5 6530.71 879.5M6533.71 865.5 6533.71 879.5M6536.71 865.5 6536.71 879.5M6539.71 865.5 6539.71 879.5M6542.71 865.5 6542.71 879.5M6545.71 865.5 6545.71 879.5M6548.71 865.5 6548.71 879.5M6551.71 865.5 6551.71 879.5M6554.72 865.5 6554.72 879.5M6557.72 865.5 6557.72 879.5M6560.72 865.5 6560.72 879.5M6563.72 865.5 6563.72 879.5M6566.72 865.5 6566.72 879.5M6569.72 865.5 6569.72 879.5M6572.72 865.5 6572.72 879.5M6575.72 865.5 6575.72 879.5M6578.72 865.5 6578.72 879.5M6581.72 865.5 6581.72 879.5M6584.72 865.5 6584.72 879.5M6587.72 865.5 6587.72 879.5M6590.72 865.5 6590.72 879.5M6593.72 865.5 6593.72 879.5M6596.72 865.5 6596.72 879.5M6599.72 865.5 6599.72 879.5M6602.72 865.5 6602.72 879.5M6605.72 865.5 6605.72 879.5M6608.72 865.5 6608.72 879.5M6611.72 865.5 6611.72 879.5M6614.72 865.5 6614.72 879.5M6617.72 865.5 6617.72 879.5M6620.72 865.5 6620.72 879.5M6623.72 865.5 6623.72 879.5M6626.72 865.5 6626.72 879.5M6629.72 865.5 6629.72 879.5M6632.72 865.5 6632.72 879.5M6635.72 865.5 6635.72 879.5M6638.72 865.5 6638.72 879.5M6641.72 865.5 6641.72 879.5M6644.72 865.5 6644.72 879.5M6647.72 865.5 6647.72 879.5M6650.72 865.5 6650.72 879.5M6653.72 865.5 6653.72 879.5M6656.72 865.5 6656.72 879.5M6659.72 865.5 6659.72 879.5M6662.72 865.5 6662.72 879.5M6665.72 865.5 6665.72 879.5M6668.72 865.5 6668.72 879.5M6671.72 865.5 6671.72 879.5M6674.72 865.5 6674.72 879.5M6677.72 865.5 6677.72 879.5M6680.72 865.5 6680.72 879.5M6683.72 865.5 6683.72 879.5M6686.72 865.5 6686.72 879.5M6689.72 865.5 6689.72 879.5M6692.72 865.5 6692.72 879.5M6695.72 865.5 6695.72 879.5M6698.72 865.5 6698.72 879.5M6701.72 865.5 6701.72 879.5M6704.72 865.5 6704.72 879.5M6707.72 865.5 6707.72 879.5M6710.72 865.5 6710.72 879.5M6713.72 865.5 6713.72 879.5M6716.72 865.5 6716.72 879.5M6719.72 865.5 6719.72 879.5M6722.72 865.5 6722.72 879.5M6725.72 865.5 6725.72 879.5M6728.72 865.5 6728.72 879.5M6731.72 865.5 6731.72 879.5M6734.72 865.5 6734.72 879.5M6737.72 865.5 6737.72 879.5M6740.72 865.5 6740.72 879.5M6743.72 865.5 6743.72 879.5M6746.72 865.5 6746.72 879.5M6749.72 865.5 6749.72 879.5M6752.72 865.5 6752.72 879.5M6755.72 865.5 6755.72 879.5M6758.72 865.5 6758.72 879.5M6761.72 865.5 6761.72 879.5M6764.72 865.5 6764.72 879.5M6767.72 865.5 6767.72 879.5M6770.72 865.5 6770.72 879.5M6773.72 865.5 6773.72 879.5M6776.72 865.5 6776.72 879.5M6779.72 865.5 6779.72 879.5M6782.72 865.5 6782.72 879.5M6785.72 865.5 6785.72 879.5M6788.72 865.5 6788.72 879.5M6791.72 865.5 6791.72 879.5M6794.72 865.5 6794.72 879.5M6797.72 865.5 6797.72 879.5M6800.72 865.5 6800.72 879.5M6803.72 865.5 6803.72 879.5M6806.72 865.5 6806.72 879.5M6809.72 865.5 6809.72 879.5M6812.72 865.5 6812.72 879.5M6815.72 865.5 6815.72 879.5M6818.72 865.5 6818.72 879.5M6821.72 865.5 6821.72 879.5M6824.72 865.5 6824.72 879.5M6827.72 865.5 6827.72 879.5M6830.72 865.5 6830.72 879.5M6833.72 865.5 6833.72 879.5M6836.72 865.5 6836.72 879.5M6839.72 865.5 6839.72 879.5M6842.72 865.5 6842.72 879.5M6845.72 865.5 6845.72 879.5M6848.72 865.5 6848.72 879.5M6851.72 865.5 6851.72 879.5M6854.73 865.5 6854.73 879.5M6857.73 865.5 6857.73 879.5M6860.73 865.5 6860.73 879.5M6863.73 865.5 6863.73 879.5M6866.73 865.5 6866.73 879.5M6869.73 865.5 6869.73 879.5M6872.73 865.5 6872.73 879.5M6875.73 865.5 6875.73 879.5M6878.73 865.5 6878.73 879.5M6881.73 865.5 6881.73 879.5M6884.73 865.5 6884.73 879.5M6887.73 865.5 6887.73 879.5M6890.73 865.5 6890.73 879.5M6893.73 865.5 6893.73 879.5M6896.73 865.5 6896.73 879.5M6899.73 865.5 6899.73 879.5M6902.73 865.5 6902.73 879.5M6905.73 865.5 6905.73 879.5M6908.73 865.5 6908.73 879.5M6911.73 865.5 6911.73 879.5M6914.73 865.5 6914.73 879.5M6917.73 865.5 6917.73 879.5M6920.73 865.5 6920.73 879.5M6923.73 865.5 6923.73 879.5M6926.73 865.5 6926.73 879.5M6929.73 865.5 6929.73 879.5M6932.73 865.5 6932.73 879.5M6935.73 865.5 6935.73 879.5M6938.73 865.5 6938.73 879.5M6941.73 865.5 6941.73 879.5M6944.73 865.5 6944.73 879.5M6947.73 865.5 6947.73 879.5M6950.73 865.5 6950.73 879.5M6953.73 865.5 6953.73 879.5M6956.73 865.5 6956.73 879.5M6959.73 865.5 6959.73 879.5M6962.73 865.5 6962.73 879.5M6965.73 865.5 6965.73 879.5M6968.73 865.5 6968.73 879.5M6971.73 865.5 6971.73 879.5M6974.73 865.5 6974.73 879.5M6977.73 865.5 6977.73 879.5M6980.73 865.5 6980.73 879.5M6983.73 865.5 6983.73 879.5M6986.73 865.5 6986.73 879.5M6989.73 865.5 6989.73 879.5M6992.73 865.5 6992.73 879.5M6995.73 865.5 6995.73 879.5M6998.73 865.5 6998.73 879.5M7001.73 865.5 7001.73 879.5M7004.73 865.5 7004.73 879.5M7007.73 865.5 7007.73 879.5M7010.73 865.5 7010.73 879.5M7013.73 865.5 7013.73 879.5M7016.73 865.5 7016.73 879.5M7019.73 865.5 7019.73 879.5M7022.73 865.5 7022.73 879.5M7025.73 865.5 7025.73 879.5M7028.73 865.5 7028.73 879.5M7031.5 865.5 7031.5 879.5" stroke="#D9D9D9" stroke-width="3.4375" stroke-linejoin="round" stroke-miterlimit="10" fill="none"/></g><g clip-path="url(#clip4)"><path d="M5663 865 5666.19 865 5669.19 864.028 5672.19 863.028 5675.19 862.028 5678.19 862.028 5681.19 861.028 5684.19 861.028 5687.19 859.028 5690.19 859.028 5693.19 859.028 5696.19 858.028 5699.19 857.028 5702.19 857.028 5705.19 856.028 5708.19 855.028 5711.19 854.028 5714.19 852.028 5717.19 850.028 5720.19 850.028 5723.19 849.028 5726.19 848.028 5729.19 847.028 5732.19 847.028 5735.19 846.028 5738.19 845.028 5741.19 845.028 5744.19 844.028 5747.19 842.028 5750.19 840.028 5753.19 840.028 5756.19 838.027 5759.19 837.027 5762.19 837.027 5765.19 836.027 5768.19 835.027 5771.19 834.027 5774.19 834.027 5777.19 833.027 5780.19 833.027 5783.19 833.027 5786.19 833.027 5789.19 833.027 5792.19 833.027 5795.19 833.027 5798.19 833.027 5801.19 833.027 5804.19 832.027 5807.19 832.027 5810.19 832.027 5813.19 830.027 5816.19 830.027 5819.19 828.027 5822.19 827.027 5825.19 825.027 5828.19 824.027 5831.19 822.027 5834.19 820.027 5837.19 819.027 5840.19 817.027 5843.19 817.027 5846.19 817.027 5849.19 815.027 5852.19 813.027 5855.19 811.027 5858.19 810.027 5861.19 809.027 5864.19 809.027 5867.19 808.026 5870.19 807.026 5873.19 807.026 5876.19 807.026 5879.19 807.026 5882.19 807.026 5885.19 806.026 5888.19 806.026 5891.19 805.026 5894.19 803.026 5897.19 803.026 5900.19 803.026 5903.19 802.026 5906.19 802.026 5909.19 801.026 5912.19 801.026 5915.19 800.026 5918.19 799.026 5921.19 798.026 5924.19 798.026 5927.19 797.026 5930.19 796.026 5933.19 795.026 5936.19 793.026 5939.19 792.026 5942.19 791.026 5945.2 790.026 5948.2 789.026 5951.2 788.026 5954.2 788.026 5957.2 786.026 5960.2 784.026 5963.2 782.026 5966.2 782.026 5969.2 782.026 5972.2 781.026 5975.2 780.026 5978.2 779.026 5981.2 778.026 5984.2 778.026 5987.2 776.026 5990.2 775.025 5993.2 774.025 5996.2 772.025 5999.2 771.025 6002.2 770.025 6005.2 769.025 6008.2 769.025 6011.2 767.025 6014.2 765.025 6017.2 764.025 6020.2 762.025 6023.2 760.025 6026.2 759.025 6029.2 759.025 6032.2 758.025 6035.2 757.025 6038.2 757.025 6041.2 757.025 6044.2 757.025 6047.2 757.025 6050.2 755.025 6053.2 753.025 6056.2 752.025 6059.2 750.025 6062.2 750.025 6065.2 748.025 6068.2 747.025 6071.2 747.025 6074.2 746.024 6077.2 744.024 6080.2 743.024 6083.2 741.024 6086.2 741.024 6089.2 739.024 6092.2 739.024 6095.2 738.024 6098.2 738.024 6101.2 736.024 6104.2 736.024 6107.2 735.024 6110.2 733.024 6112.2 733.024 6115.2 733.024 6118.2 731.024 6121.2 731.024 6124.2 730.024 6127.2 729.024 6130.2 727.024 6133.2 726.024 6136.2 724.024 6139.2 722.024 6142.2 721.024 6145.2 720.024 6148.2 720.024 6151.2 719.024 6154.2 719.024 6157.2 718.024 6160.2 718.024 6163.2 717.024 6166.2 717.024 6169.2 716.023 6172.2 716.023 6175.2 716.023 6178.2 715.023 6181.2 714.023 6184.2 713.023 6187.2 711.023 6190.2 709.023 6193.2 707.023 6196.2 706.023 6199.2 705.023 6202.2 704.023 6205.2 704.023 6208.2 702.023 6211.2 701.023 6214.2 699.023 6217.2 698.023 6220.2 696.023 6223.2 696.023 6226.2 694.023 6229.2 693.023 6232.2 693.023 6235.2 692.023 6238.2 691.023 6241.21 690.023 6244.21 689.023 6247.21 687.023 6250.21 686.023 6253.21 684.022 6256.21 684.022 6259.21 682.022 6262.21 681.022 6265.21 679.022 6268.21 679.022 6271.21 678.022 6274.21 677.022 6277.21 676.022 6280.21 675.022 6283.21 674.022 6286.21 673.022 6289.21 672.022 6292.21 670.022 6295.21 669.022 6298.21 669.022 6301.21 668.022 6304.21 667.022 6307.21 667.022 6310.21 666.022 6313.21 665.022 6316.21 664.022 6319.21 662.022 6322.21 662.022 6325.21 662.022 6328.21 662.022 6331.21 660.022 6334.21 659.022 6337.21 658.022 6340.21 657.022 6343.21 656.022 6346.21 655.021 6349.21 655.021 6352.21 655.021 6355.21 655.021 6358.21 654.021 6361.21 654.021 6364.21 654.021 6367.21 653.021 6370.21 652.021 6373.21 651.021 6376.21 650.021 6379.21 649.021 6382.21 648.021 6385.21 646.021 6388.21 646.021 6391.21 645.021 6394.21 644.021 6397.21 644.021 6400.21 643.021 6403.21 643.021 6406.21 641.021 6409.21 640.021 6412.21 638.021 6415.21 637.021 6418.21 637.021 6421.21 635.021 6424.21 633.021 6427.21 631.021 6430.21 630.021 6433.21 630.021 6436.21 628.021 6439.21 627.021 6442.21 625.021 6445.21 625.021 6448.21 625.021 6451.21 625.021 6454.21 625.021 6457.21 624.021 6460.21 624.021 6463.21 623.02 6466.21 622.02 6469.21 621.02 6472.21 619.02 6475.21 619.02 6478.21 618.02 6481.21 617.02 6484.21 616.02 6487.21 616.02 6490.21 616.02 6493.21 616.02 6496.21 615.02 6499.21 615.02 6502.21 614.02 6505.21 614.02 6508.21 612.02 6511.21 612.02 6514.21 610.02 6517.21 609.02 6520.21 607.02 6523.21 606.02 6526.21 605.02 6529.21 604.02 6532.21 604.02 6535.21 604.02 6538.21 604.02 6541.21 604.02 6544.21 602.02 6547.21 600.02 6550.21 599.02 6553.21 597.02 6556.22 595.02 6559.22 593.019 6562.22 592.019 6565.22 590.019 6568.22 588.019 6571.22 587.019 6574.22 587.019 6577.22 587.019 6580.22 586.019 6583.22 584.019 6586.22 582.019 6589.22 580.019 6592.22 579.019 6595.22 579.019 6598.22 579.019 6601.22 578.019 6604.22 577.019 6607.22 576.019 6610.22 575.019 6613.22 574.019 6616.22 573.019 6619.22 572.019 6622.22 570.019 6625.22 568.019 6628.22 567.019 6631.22 566.019 6634.22 566.019 6637.22 564.018 6640.22 562.018 6643.22 562.018 6646.22 561.018 6649.22 559.018 6652.22 558.018 6655.22 556.018 6658.22 555.018 6661.22 555.018 6664.22 554.018 6667.22 554.018 6670.22 553.018 6673.22 551.018 6676.22 550.018 6679.22 548.018 6682.22 546.018 6685.22 546.018 6688.22 546.018 6691.22 544.018 6694.22 544.018 6697.22 543.018 6700.22 542.018 6703.22 542.018 6706.22 541.018 6709.22 540.018 6712.22 539.018 6715.22 538.018 6718.22 538.018 6721.22 537.018 6724.22 536.018 6727.22 534.018 6730.22 533.018 6733.22 531.017 6736.22 530.017 6739.22 530.017 6742.22 529.017 6745.22 528.017 6748.22 527.017 6751.22 526.017 6754.22 526.017 6757.22 524.017 6760.22 524.017 6763.22 523.017 6766.22 522.017 6769.22 521.017 6772.22 519.017 6775.22 518.017 6778.22 518.017 6781.22 517.017 6784.22 516.017 6787.22 516.017 6790.22 514.017 6793.22 512.017 6796.22 510.017 6799.22 509.017 6802.22 508.017 6805.22 508.017 6808.22 507.017 6811.22 505.017 6814.22 503.017 6817.22 503.017 6820.22 503.017 6823.22 501.016 6826.22 499.016 6829.22 498.016 6832.22 496.016 6835.22 495.016 6838.22 494.016 6841.22 494.016 6844.22 494.016 6847.22 492.016 6850.22 490.016 6853.22 490.016 6856.23 490.016 6859.23 490.016 6862.23 489.016 6865.23 488.016 6868.23 487.016 6871.23 486.016 6874.23 485.016 6877.23 484.016 6880.23 483.016 6883.23 482.016 6886.23 481.016 6889.23 480.016 6892.23 478.016 6895.23 477.016 6898.23 477.016 6901.23 476.016 6904.23 475.016 6907.23 474.016 6910.23 473.016 6913.23 473.016 6916.23 472.016 6919.23 471.015 6922.23 470.015 6925.23 468.015 6928.23 466.015 6931.23 465.015 6934.23 465.015 6937.23 464.015 6940.23 464.015 6943.23 464.015 6946.23 462.015 6949.23 461.015 6952.23 460.015 6955.23 459.015 6958.23 458.015 6961.23 458.015 6964.23 458.015 6967.23 456.015 6970.23 455.015 6973.23 454.015 6976.23 453.015 6979.23 452.015 6982.23 452.015 6985.23 450.015 6988.23 448.015 6991.23 446.015 6994.23 446.015 6997.23 445.015 7000.23 444.015 7003.23 444.015 7006.23 443.015 7009.23 442.015 7012.23 441.014 7015.23 440.014 7018.23 438.014 7021.23 438.014 7024.23 437.014 7027.23 436.014 7030 435" stroke="#4472C4" stroke-width="10.3125" stroke-linecap="round" stroke-linejoin="round" stroke-miterlimit="10" fill="none"/></g><g clip-path="url(#clip5)"><path d="M5663 866 5666.19 863.028 5669.19 862.028 5672.19 861.028 5675.19 860.028 5678.19 858.028 5681.19 857.028 5684.19 854.028 5687.19 854.028 5690.19 852.028 5693.19 850.028 5696.19 850.028 5699.19 849.028 5702.19 847.028 5705.19 846.028 5708.19 845.028 5711.19 845.028 5714.19 845.028 5717.19 845.028 5720.19 843.028 5723.19 842.028 5726.19 841.028 5729.19 840.028 5732.19 837.027 5735.19 836.027 5738.19 835.027 5741.19 834.027 5744.19 833.027 5747.19 833.027 5750.19 833.027 5753.19 831.027 5756.19 831.027 5759.19 830.027 5762.19 828.027 5765.19 827.027 5768.19 826.027 5771.19 825.027 5774.19 823.027 5777.19 822.027 5780.19 820.027 5783.19 818.027 5786.19 815.027 5789.19 813.027 5792.19 812.027 5795.19 809.026 5798.19 807.026 5801.19 805.026 5804.19 804.026 5807.19 801.026 5810.19 799.026 5813.19 799.026 5816.19 797.026 5819.19 797.026 5822.19 796.026 5825.19 796.026 5828.19 795.026 5831.19 795.026 5834.19 795.026 5837.19 795.026 5840.19 795.026 5843.19 793.026 5846.19 791.026 5849.19 791.026 5852.19 791.026 5855.19 791.026 5858.19 790.026 5861.19 789.026 5864.19 787.026 5867.19 786.026 5870.19 785.026 5873.19 782.026 5876.19 780.026 5879.19 778.026 5882.19 777.026 5885.19 776.025 5888.19 773.025 5891.19 772.025 5894.19 772.025 5897.19 770.025 5900.19 769.025 5903.19 768.025 5906.19 766.025 5909.19 765.025 5912.19 762.025 5915.19 761.025 5918.19 760.025 5921.19 759.025 5924.19 757.025 5927.19 756.025 5930.19 755.025 5933.19 755.025 5936.19 755.025 5939.19 754.025 5942.19 753.025 5945.2 752.025 5948.2 751.025 5951.2 750.025 5954.2 747.025 5957.2 747.025 5960.2 747.025 5963.2 747.025 5966.2 745.024 5969.2 744.024 5972.2 744.024 5975.2 743.024 5978.2 742.024 5981.2 741.024 5984.2 738.024 5987.2 738.024 5990.2 737.024 5993.2 736.024 5996.2 736.024 5999.2 735.024 6002.2 734.024 6005.2 733.024 6008.2 732.024 6011.2 732.024 6014.2 732.024 6017.2 731.024 6020.2 731.024 6023.2 731.024 6026.2 731.024 6029.2 729.024 6032.2 728.024 6035.2 727.024 6038.2 725.024 6041.2 724.024 6044.2 721.024 6047.2 719.024 6050.2 719.024 6053.2 719.024 6056.2 718.024 6059.2 718.024 6062.2 715.023 6065.2 715.023 6068.2 714.023 6071.2 711.023 6074.2 710.023 6077.2 710.023 6080.2 710.023 6083.2 710.023 6086.2 708.023 6089.2 708.023 6092.2 706.023 6095.2 705.023 6098.2 702.023 6101.2 702.023 6104.2 699.023 6107.2 698.023 6110.2 698.023 6112.2 696.023 6115.2 693.023 6118.2 693.023 6121.2 693.023 6124.2 692.023 6127.2 691.023 6130.2 691.023 6133.2 690.023 6136.2 690.023 6139.2 690.023 6142.2 689.023 6145.2 688.023 6148.2 686.022 6151.2 685.022 6154.2 684.022 6157.2 683.022 6160.2 681.022 6163.2 680.022 6166.2 677.022 6169.2 676.022 6172.2 674.022 6175.2 671.022 6178.2 670.022 6181.2 669.022 6184.2 668.022 6187.2 668.022 6190.2 668.022 6193.2 668.022 6196.2 668.022 6199.2 668.022 6202.2 667.022 6205.2 665.022 6208.2 665.022 6211.2 664.022 6214.2 664.022 6217.2 663.022 6220.2 663.022 6223.2 661.022 6226.2 661.022 6229.2 660.022 6232.2 658.022 6235.2 658.022 6238.2 657.022 6241.21 656.021 6244.21 655.021 6247.21 655.021 6250.21 655.021 6253.21 655.021 6256.21 653.021 6259.21 653.021 6262.21 653.021 6265.21 653.021 6268.21 651.021 6271.21 650.021 6274.21 649.021 6277.21 648.021 6280.21 647.021 6283.21 646.021 6286.21 645.021 6289.21 644.021 6292.21 644.021 6295.21 643.021 6298.21 642.021 6301.21 641.021 6304.21 641.021 6307.21 638.021 6310.21 637.021 6313.21 636.021 6316.21 635.021 6319.21 635.021 6322.21 632.021 6325.21 630.021 6328.21 627.021 6331.21 627.021 6334.21 626.021 6337.21 625.021 6340.21 624.02 6343.21 623.02 6346.21 622.02 6349.21 621.02 6352.21 618.02 6355.21 617.02 6358.21 616.02 6361.21 614.02 6364.21 612.02 6367.21 611.02 6370.21 610.02 6373.21 609.02 6376.21 608.02 6379.21 607.02 6382.21 606.02 6385.21 606.02 6388.21 604.02 6391.21 604.02 6394.21 603.02 6397.21 600.02 6400.21 599.02 6403.21 598.02 6406.21 598.02 6409.21 597.02 6412.21 597.02 6415.21 596.02 6418.21 593.019 6421.21 593.019 6424.21 593.019 6427.21 593.019 6430.21 592.019 6433.21 592.019 6436.21 592.019 6439.21 591.019 6442.21 591.019 6445.21 589.019 6448.21 586.019 6451.21 584.019 6454.21 581.019 6457.21 580.019 6460.21 579.019 6463.21 578.019 6466.21 577.019 6469.21 576.019 6472.21 576.019 6475.21 574.019 6478.21 573.019 6481.21 573.019 6484.21 572.019 6487.21 570.019 6490.21 568.019 6493.21 566.019 6496.21 566.019 6499.21 564.018 6502.21 563.018 6505.21 561.018 6508.21 561.018 6511.21 558.018 6514.21 558.018 6517.21 557.018 6520.21 557.018 6523.21 556.018 6526.21 555.018 6529.21 554.018 6532.21 552.018 6535.21 551.018 6538.21 549.018 6541.21 547.018 6544.21 547.018 6547.21 547.018 6550.21 546.018 6553.21 546.018 6556.22 546.018 6559.22 546.018 6562.22 546.018 6565.22 546.018 6568.22 546.018 6571.22 545.018 6574.22 542.018 6577.22 540.018 6580.22 539.018 6583.22 539.018 6586.22 539.018 6589.22 539.018 6592.22 538.018 6595.22 537.018 6598.22 535.018 6601.22 534.018 6604.22 533.017 6607.22 532.017 6610.22 531.017 6613.22 530.017 6616.22 529.017 6619.22 528.017 6622.22 528.017 6625.22 528.017 6628.22 528.017 6631.22 527.017 6634.22 526.017 6637.22 526.017 6640.22 526.017 6643.22 523.017 6646.22 522.017 6649.22 522.017 6652.22 521.017 6655.22 521.017 6658.22 520.017 6661.22 517.017 6664.22 516.017 6667.22 514.017 6670.22 514.017 6673.22 514.017 6676.22 513.017 6679.22 513.017 6682.22 513.017 6685.22 510.017 6688.22 508.017 6691.22 508.017 6694.22 505.017 6697.22 504.017 6700.22 503.016 6703.22 501.016 6706.22 501.016 6709.22 500.016 6712.22 499.016 6715.22 498.016 6718.22 496.016 6721.22 495.016 6724.22 494.016 6727.22 494.016 6730.22 493.016 6733.22 493.016 6736.22 492.016 6739.22 490.016 6742.22 489.016 6745.22 489.016 6748.22 488.016 6751.22 487.016 6754.22 485.016 6757.22 485.016 6760.22 482.016 6763.22 481.016 6766.22 480.016 6769.22 479.016 6772.22 479.016 6775.22 478.016 6778.22 477.016 6781.22 476.016 6784.22 475.016 6787.22 474.016 6790.22 474.016 6793.22 474.016 6796.22 474.016 6799.22 473.016 6802.22 472.015 6805.22 469.015 6808.22 468.015 6811.22 468.015 6814.22 468.015 6817.22 465.015 6820.22 465.015 6823.22 465.015 6826.22 465.015 6829.22 464.015 6832.22 464.015 6835.22 463.015 6838.22 462.015 6841.22 460.015 6844.22 457.015 6847.22 457.015 6850.22 457.015 6853.22 454.015 6856.23 452.015 6859.23 450.015 6862.23 450.015 6865.23 449.015 6868.23 448.015 6871.23 447.015 6874.23 446.015 6877.23 445.015 6880.23 444.015 6883.23 443.015 6886.23 442.014 6889.23 441.014 6892.23 441.014 6895.23 441.014 6898.23 440.014 6901.23 439.014 6904.23 438.014 6907.23 437.014 6910.23 436.014 6913.23 434.014 6916.23 433.014 6919.23 432.014 6922.23 431.014 6925.23 431.014 6928.23 431.014 6931.23 430.014 6934.23 429.014 6937.23 428.014 6940.23 427.014 6943.23 425.014 6946.23 425.014 6949.23 424.014 6952.23 423.014 6955.23 422.014 6958.23 421.014 6961.23 419.014 6964.23 417.014 6967.23 417.014 6970.23 416.014 6973.23 415.014 6976.23 414.014 6979.23 414.014 6982.23 413.014 6985.23 413.014 6988.23 413.014 6991.23 413.014 6994.23 411.013 6997.23 410.013 7000.23 409.013 7003.23 407.013 7006.23 406.013 7009.23 405.013 7012.23 404.013 7015.23 404.013 7018.23 404.013 7021.23 402.013 7024.23 401.013 7027.23 400.013 7030 399" stroke="#ED7D31" stroke-width="10.3125" stroke-linecap="round" stroke-linejoin="round" stroke-miterlimit="10" fill="none"/></g><g clip-path="url(#clip6)"><path d="M5663 863 5666.19 863 5669.19 862.028 5672.19 861.028 5675.19 860.028 5678.19 860.028 5681.19 859.028 5684.19 859.028 5687.19 859.028 5690.19 858.028 5693.19 856.028 5696.19 856.028 5699.19 855.028 5702.19 853.028 5705.19 852.028 5708.19 851.028 5711.19 850.028 5714.19 850.028 5717.19 850.028 5720.19 848.028 5723.19 847.028 5726.19 846.028 5729.19 845.028 5732.19 845.028 5735.19 845.028 5738.19 844.028 5741.19 843.028 5744.19 842.028 5747.19 842.028 5750.19 842.028 5753.19 842.028 5756.19 842.028 5759.19 841.028 5762.19 839.028 5765.19 838.027 5768.19 837.027 5771.19 836.027 5774.19 834.027 5777.19 833.027 5780.19 833.027 5783.19 832.027 5786.19 832.027 5789.19 830.027 5792.19 829.027 5795.19 829.027 5798.19 829.027 5801.19 827.027 5804.19 826.027 5807.19 826.027 5810.19 824.027 5813.19 824.027 5816.19 822.027 5819.19 822.027 5822.19 821.027 5825.19 821.027 5828.19 820.027 5831.19 820.027 5834.19 820.027 5837.19 820.027 5840.19 820.027 5843.19 820.027 5846.19 819.027 5849.19 819.027 5852.19 819.027 5855.19 819.027 5858.19 818.027 5861.19 817.027 5864.19 815.027 5867.19 814.027 5870.19 813.027 5873.19 813.027 5876.19 813.027 5879.19 811.027 5882.19 810.027 5885.19 809.027 5888.19 809.027 5891.19 808.026 5894.19 808.026 5897.19 807.026 5900.19 805.026 5903.19 804.026 5906.19 802.026 5909.19 801.026 5912.19 801.026 5915.19 800.026 5918.19 799.026 5921.19 798.026 5924.19 798.026 5927.19 797.026 5930.19 796.026 5933.19 796.026 5936.19 796.026 5939.19 795.026 5942.19 795.026 5945.2 794.026 5948.2 793.026 5951.2 792.026 5954.2 792.026 5957.2 792.026 5960.2 792.026 5963.2 792.026 5966.2 790.026 5969.2 788.026 5972.2 788.026 5975.2 787.026 5978.2 786.026 5981.2 785.026 5984.2 785.026 5987.2 785.026 5990.2 784.026 5993.2 783.026 5996.2 783.026 5999.2 782.026 6002.2 782.026 6005.2 781.026 6008.2 780.026 6011.2 780.026 6014.2 780.026 6017.2 779.026 6020.2 779.026 6023.2 779.026 6026.2 778.026 6029.2 776.025 6032.2 775.025 6035.2 774.025 6038.2 772.025 6041.2 771.025 6044.2 771.025 6047.2 771.025 6050.2 771.025 6053.2 771.025 6056.2 770.025 6059.2 770.025 6062.2 770.025 6065.2 770.025 6068.2 769.025 6071.2 769.025 6074.2 769.025 6077.2 769.025 6080.2 769.025 6083.2 769.025 6086.2 767.025 6089.2 767.025 6092.2 767.025 6095.2 766.025 6098.2 766.025 6101.2 766.025 6104.2 766.025 6107.2 765.025 6110.2 765.025 6112.2 763.025 6115.2 763.025 6118.2 763.025 6121.2 762.025 6124.2 761.025 6127.2 760.025 6130.2 760.025 6133.2 759.025 6136.2 759.025 6139.2 759.025 6142.2 758.025 6145.2 757.025 6148.2 756.025 6151.2 755.025 6154.2 754.025 6157.2 753.025 6160.2 753.025 6163.2 752.025 6166.2 752.025 6169.2 751.025 6172.2 749.025 6175.2 749.025 6178.2 748.025 6181.2 747.025 6184.2 746.024 6187.2 746.024 6190.2 746.024 6193.2 746.024 6196.2 745.024 6199.2 745.024 6202.2 744.024 6205.2 743.024 6208.2 743.024 6211.2 742.024 6214.2 742.024 6217.2 741.024 6220.2 741.024 6223.2 739.024 6226.2 739.024 6229.2 738.024 6232.2 736.024 6235.2 736.024 6238.2 735.024 6241.21 734.024 6244.21 733.024 6247.21 733.024 6250.21 732.024 6253.21 732.024 6256.21 731.024 6259.21 731.024 6262.21 731.024 6265.21 731.024 6268.21 729.024 6271.21 728.024 6274.21 727.024 6277.21 726.024 6280.21 725.024 6283.21 724.024 6286.21 723.024 6289.21 722.024 6292.21 722.024 6295.21 721.024 6298.21 719.024 6301.21 719.024 6304.21 719.024 6307.21 719.024 6310.21 718.024 6313.21 717.023 6316.21 716.023 6319.21 716.023 6322.21 716.023 6325.21 716.023 6328.21 716.023 6331.21 716.023 6334.21 715.023 6337.21 714.023 6340.21 713.023 6343.21 712.023 6346.21 711.023 6349.21 710.023 6352.21 710.023 6355.21 708.023 6358.21 707.023 6361.21 706.023 6364.21 704.023 6367.21 703.023 6370.21 702.023 6373.21 701.023 6376.21 700.023 6379.21 699.023 6382.21 698.023 6385.21 698.023 6388.21 696.023 6391.21 695.023 6394.21 694.023 6397.21 694.023 6400.21 693.023 6403.21 693.023 6406.21 693.023 6409.21 692.023 6412.21 692.023 6415.21 691.023 6418.21 691.023 6421.21 691.023 6424.21 691.023 6427.21 691.023 6430.21 690.023 6433.21 689.023 6436.21 689.023 6439.21 688.023 6442.21 688.023 6445.21 686.023 6448.21 686.023 6451.21 684.022 6454.21 684.022 6457.21 683.022 6460.21 681.022 6463.21 681.022 6466.21 680.022 6469.21 679.022 6472.21 679.022 6475.21 677.022 6478.21 676.022 6481.21 676.022 6484.21 675.022 6487.21 673.022 6490.21 671.022 6493.21 669.022 6496.21 668.022 6499.21 667.022 6502.21 666.022 6505.21 664.022 6508.21 664.022 6511.21 664.022 6514.21 664.022 6517.21 663.022 6520.21 663.022 6523.21 662.022 6526.21 661.022 6529.21 660.022 6532.21 660.022 6535.21 659.022 6538.21 657.022 6541.21 655.021 6544.21 655.021 6547.21 655.021 6550.21 655.021 6553.21 655.021 6556.22 655.021 6559.22 655.021 6562.22 655.021 6565.22 655.021 6568.22 655.021 6571.22 654.021 6574.22 654.021 6577.22 654.021 6580.22 653.021 6583.22 653.021 6586.22 653.021 6589.22 653.021 6592.22 652.021 6595.22 651.021 6598.22 649.021 6601.22 648.021 6604.22 647.021 6607.22 646.021 6610.22 645.021 6613.22 644.021 6616.22 643.021 6619.22 643.021 6622.22 643.021 6625.22 643.021 6628.22 642.021 6631.22 641.021 6634.22 640.021 6637.22 640.021 6640.22 640.021 6643.22 640.021 6646.22 639.021 6649.22 639.021 6652.22 638.021 6655.22 638.021 6658.22 637.021 6661.22 637.021 6664.22 636.021 6667.22 636.021 6670.22 636.021 6673.22 636.021 6676.22 635.021 6679.22 635.021 6682.22 635.021 6685.22 635.021 6688.22 633.021 6691.22 633.021 6694.22 633.021 6697.22 632.021 6700.22 631.021 6703.22 631.021 6706.22 631.021 6709.22 630.021 6712.22 630.021 6715.22 629.021 6718.22 627.021 6721.22 626.021 6724.22 625.021 6727.22 625.021 6730.22 624.02 6733.22 624.02 6736.22 623.02 6739.22 623.02 6742.22 622.02 6745.22 622.02 6748.22 621.02 6751.22 620.02 6754.22 618.02 6757.22 618.02 6760.22 618.02 6763.22 617.02 6766.22 617.02 6769.22 616.02 6772.22 616.02 6775.22 615.02 6778.22 613.02 6781.22 612.02 6784.22 611.02 6787.22 610.02 6790.22 610.02 6793.22 610.02 6796.22 610.02 6799.22 609.02 6802.22 608.02 6805.22 608.02 6808.22 607.02 6811.22 607.02 6814.22 607.02 6817.22 607.02 6820.22 606.02 6823.22 606.02 6826.22 606.02 6829.22 605.02 6832.22 605.02 6835.22 604.02 6838.22 604.02 6841.22 602.02 6844.22 602.02 6847.22 602.02 6850.22 602.02 6853.22 602.02 6856.23 600.02 6859.23 600.02 6862.23 600.02 6865.23 599.02 6868.23 598.02 6871.23 597.02 6874.23 596.02 6877.23 595.02 6880.23 594.019 6883.23 593.019 6886.23 592.019 6889.23 592.019 6892.23 592.019 6895.23 592.019 6898.23 590.019 6901.23 589.019 6904.23 588.019 6907.23 587.019 6910.23 586.019 6913.23 584.019 6916.23 583.019 6919.23 582.019 6922.23 581.019 6925.23 581.019 6928.23 581.019 6931.23 580.019 6934.23 579.019 6937.23 579.019 6940.23 577.019 6943.23 575.019 6946.23 575.019 6949.23 574.019 6952.23 573.019 6955.23 572.019 6958.23 571.019 6961.23 569.019 6964.23 567.019 6967.23 567.019 6970.23 566.019 6973.23 566.019 6976.23 565.019 6979.23 564.018 6982.23 563.018 6985.23 563.018 6988.23 563.018 6991.23 563.018 6994.23 561.018 6997.23 560.018 7000.23 559.018 7003.23 557.018 7006.23 556.018 7009.23 555.018 7012.23 554.018 7015.23 554.018 7018.23 554.018 7021.23 554.018 7024.23 554.018 7027.23 553.018 7030 552" stroke="#A5A5A5" stroke-width="10.3125" stroke-linecap="round" stroke-linejoin="round" stroke-miterlimit="10" fill="none"/></g><g clip-path="url(#clip7)"><text fill="#595959" font-family="Calibri,Calibri_MSFontService,sans-serif" font-weight="400" font-size="41" transform="matrix(1 0 0 1 5602.36 877)">0</text></g><g clip-path="url(#clip8)"><text fill="#595959" font-family="Calibri,Calibri_MSFontService,sans-serif" font-weight="400" font-size="41" transform="matrix(1 0 0 1 5560.56 785)">100</text></g><g clip-path="url(#clip9)"><text fill="#595959" font-family="Calibri,Calibri_MSFontService,sans-serif" font-weight="400" font-size="41" transform="matrix(1 0 0 1 5560.56 692)">200</text></g><g clip-path="url(#clip10)"><text fill="#595959" font-family="Calibri,Calibri_MSFontService,sans-serif" font-weight="400" font-size="41" transform="matrix(1 0 0 1 5560.56 599)">300</text></g><g clip-path="url(#clip11)"><text fill="#595959" font-family="Calibri,Calibri_MSFontService,sans-serif" font-weight="400" font-size="41" transform="matrix(1 0 0 1 5560.56 507)">400</text></g><g clip-path="url(#clip12)"><text fill="#595959" font-family="Calibri,Calibri_MSFontService,sans-serif" font-weight="400" font-size="41" transform="matrix(1 0 0 1 5560.56 414)">500</text></g><g clip-path="url(#clip13)"><text fill="#595959" font-family="Calibri,Calibri_MSFontService,sans-serif" font-weight="400" font-size="41" transform="matrix(1 0 0 1 5560.56 321)">600</text></g><g clip-path="url(#clip14)"><text fill="#595959" font-family="Calibri,Calibri_MSFontService,sans-serif" font-weight="400" font-size="41" transform="matrix(6.12323e-17 -1 1 6.12323e-17 5676.85 913)">0</text></g><g clip-path="url(#clip15)"><text fill="#595959" font-family="Calibri,Calibri_MSFontService,sans-serif" font-weight="400" font-size="41" transform="matrix(6.12323e-17 -1 1 6.12323e-17 5727.81 976)">8831</text></g><g clip-path="url(#clip16)"><text fill="#595959" font-family="Calibri,Calibri_MSFontService,sans-serif" font-weight="400" font-size="41" transform="matrix(6.12323e-17 -1 1 6.12323e-17 5778.78 997)">17621</text></g><g clip-path="url(#clip17)"><text fill="#595959" font-family="Calibri,Calibri_MSFontService,sans-serif" font-weight="400" font-size="41" transform="matrix(6.12323e-17 -1 1 6.12323e-17 5829.74 997)">26439</text></g><g clip-path="url(#clip18)"><text fill="#595959" font-family="Calibri,Calibri_MSFontService,sans-serif" font-weight="400" font-size="41" transform="matrix(6.12323e-17 -1 1 6.12323e-17 5880.7 997)">35275</text></g><g clip-path="url(#clip19)"><text fill="#595959" font-family="Calibri,Calibri_MSFontService,sans-serif" font-weight="400" font-size="41" transform="matrix(6.12323e-17 -1 1 6.12323e-17 5931.67 997)">43540</text></g><g clip-path="url(#clip20)"><text fill="#595959" font-family="Calibri,Calibri_MSFontService,sans-serif" font-weight="400" font-size="41" transform="matrix(6.12323e-17 -1 1 6.12323e-17 5982.63 997)">52345</text></g><g clip-path="url(#clip21)"><text fill="#595959" font-family="Calibri,Calibri_MSFontService,sans-serif" font-weight="400" font-size="41" transform="matrix(6.12323e-17 -1 1 6.12323e-17 6033.59 997)">61198</text></g><g clip-path="url(#clip22)"><text fill="#595959" font-family="Calibri,Calibri_MSFontService,sans-serif" font-weight="400" font-size="41" transform="matrix(6.12323e-17 -1 1 6.12323e-17 6084.56 997)">70046</text></g><g clip-path="url(#clip23)"><text fill="#595959" font-family="Calibri,Calibri_MSFontService,sans-serif" font-weight="400" font-size="41" transform="matrix(6.12323e-17 -1 1 6.12323e-17 6135.52 997)">78850</text></g><g clip-path="url(#clip24)"><text fill="#595959" font-family="Calibri,Calibri_MSFontService,sans-serif" font-weight="400" font-size="41" transform="matrix(6.12323e-17 -1 1 6.12323e-17 6186.48 997)">87653</text></g><g clip-path="url(#clip25)"><text fill="#595959" font-family="Calibri,Calibri_MSFontService,sans-serif" font-weight="400" font-size="41" transform="matrix(6.12323e-17 -1 1 6.12323e-17 6237.45 997)">96485</text></g><g clip-path="url(#clip26)"><text fill="#595959" font-family="Calibri,Calibri_MSFontService,sans-serif" font-weight="400" font-size="41" transform="matrix(6.12323e-17 -1 1 6.12323e-17 6288.41 1018)">105327</text></g><g clip-path="url(#clip27)"><text fill="#595959" font-family="Calibri,Calibri_MSFontService,sans-serif" font-weight="400" font-size="41" transform="matrix(6.12323e-17 -1 1 6.12323e-17 6339.37 1018)">114160</text></g><g clip-path="url(#clip28)"><text fill="#595959" font-family="Calibri,Calibri_MSFontService,sans-serif" font-weight="400" font-size="41" transform="matrix(6.12323e-17 -1 1 6.12323e-17 6390.34 1018)">122954</text></g><g clip-path="url(#clip29)"><text fill="#595959" font-family="Calibri,Calibri_MSFontService,sans-serif" font-weight="400" font-size="41" transform="matrix(6.12323e-17 -1 1 6.12323e-17 6441.3 1018)">131792</text></g><g clip-path="url(#clip30)"><text fill="#595959" font-family="Calibri,Calibri_MSFontService,sans-serif" font-weight="400" font-size="41" transform="matrix(6.12323e-17 -1 1 6.12323e-17 6492.26 1018)">140665</text></g><g clip-path="url(#clip31)"><text fill="#595959" font-family="Calibri,Calibri_MSFontService,sans-serif" font-weight="400" font-size="41" transform="matrix(6.12323e-17 -1 1 6.12323e-17 6543.23 1018)">149483</text></g><g clip-path="url(#clip32)"><text fill="#595959" font-family="Calibri,Calibri_MSFontService,sans-serif" font-weight="400" font-size="41" transform="matrix(6.12323e-17 -1 1 6.12323e-17 6594.19 1018)">158281</text></g><g clip-path="url(#clip33)"><text fill="#595959" font-family="Calibri,Calibri_MSFontService,sans-serif" font-weight="400" font-size="41" transform="matrix(6.12323e-17 -1 1 6.12323e-17 6645.15 1018)">167140</text></g><g clip-path="url(#clip34)"><text fill="#595959" font-family="Calibri,Calibri_MSFontService,sans-serif" font-weight="400" font-size="41" transform="matrix(6.12323e-17 -1 1 6.12323e-17 6696.12 1018)">175977</text></g><g clip-path="url(#clip35)"><text fill="#595959" font-family="Calibri,Calibri_MSFontService,sans-serif" font-weight="400" font-size="41" transform="matrix(6.12323e-17 -1 1 6.12323e-17 6747.08 1018)">184837</text></g><g clip-path="url(#clip36)"><text fill="#595959" font-family="Calibri,Calibri_MSFontService,sans-serif" font-weight="400" font-size="41" transform="matrix(6.12323e-17 -1 1 6.12323e-17 6798.04 1018)">193668</text></g><g clip-path="url(#clip37)"><text fill="#595959" font-family="Calibri,Calibri_MSFontService,sans-serif" font-weight="400" font-size="41" transform="matrix(6.12323e-17 -1 1 6.12323e-17 6849.01 1018)">202515</text></g><g clip-path="url(#clip38)"><text fill="#595959" font-family="Calibri,Calibri_MSFontService,sans-serif" font-weight="400" font-size="41" transform="matrix(6.12323e-17 -1 1 6.12323e-17 6899.97 1018)">211382</text></g><g clip-path="url(#clip39)"><text fill="#595959" font-family="Calibri,Calibri_MSFontService,sans-serif" font-weight="400" font-size="41" transform="matrix(6.12323e-17 -1 1 6.12323e-17 6950.93 1018)">220215</text></g><g clip-path="url(#clip40)"><text fill="#595959" font-family="Calibri,Calibri_MSFontService,sans-serif" font-weight="400" font-size="41" transform="matrix(6.12323e-17 -1 1 6.12323e-17 7001.9 1018)">229073</text></g><g clip-path="url(#clip41)"><text fill="#595959" font-family="Calibri,Calibri_MSFontService,sans-serif" font-weight="400" font-size="46" transform="matrix(6.12323e-17 -1 1 6.12323e-17 5534.87 746)">Groups departed</text></g><g clip-path="url(#clip42)"><text fill="#595959" font-family="Calibri,Calibri_MSFontService,sans-serif" font-weight="400" font-size="46" transform="matrix(1 0 0 1 6257.55 1075)">time (ms)</text></g><g clip-path="url(#clip43)"><path d="M5952 1183 6040 1183" stroke="#4472C4" stroke-width="10.3125" stroke-linecap="round" stroke-linejoin="round" stroke-miterlimit="10" fill="none" fill-rule="evenodd"/></g><g clip-path="url(#clip44)"><text fill="#595959" font-family="Calibri,Calibri_MSFontService,sans-serif" font-weight="400" font-size="41" transform="matrix(1 0 0 1 6049 1195)">three</text></g><g clip-path="url(#clip45)"><path d="M6182 1183 6270 1183" stroke="#ED7D31" stroke-width="10.3125" stroke-linecap="round" stroke-linejoin="round" stroke-miterlimit="10" fill="none" fill-rule="evenodd"/></g><g clip-path="url(#clip46)"><text fill="#595959" font-family="Calibri,Calibri_MSFontService,sans-serif" font-weight="400" font-size="41" transform="matrix(1 0 0 1 6279.09 1195)">two</text></g><g clip-path="url(#clip47)"><path d="M6386 1183 6474 1183" stroke="#A5A5A5" stroke-width="10.3125" stroke-linecap="round" stroke-linejoin="round" stroke-miterlimit="10" fill="none" fill-rule="evenodd"/></g><g clip-path="url(#clip48)"><text fill="#595959" font-family="Calibri,Calibri_MSFontService,sans-serif" font-weight="400" font-size="41" transform="matrix(1 0 0 1 6483.28 1195)">single</text></g><rect x="5434.5" y="259.5" width="1648" height="990" stroke="#D9D9D9" stroke-width="3.4375" stroke-linejoin="round" stroke-miterlimit="10" fill="none"/></g></svg>